Coordinates
version=1
nRows=19
nColumns=34
inDegrees=no

Units are S.I. units (second, meters, Newtons, ...)
If the header above contains a line with 'inDegrees', this indicates whether rotational values are in degrees (yes) or radians (no).

endheader
time	pelvis_tilt	pelvis_list	pelvis_rotation	pelvis_tx	pelvis_ty	pelvis_tz	hip_flexion_r	hip_adduction_r	hip_rotation_r	knee_angle_r	ankle_angle_r	subtalar_angle_r	mtp_angle_r	hip_flexion_l	hip_adduction_l	hip_rotation_l	knee_angle_l	ankle_angle_l	subtalar_angle_l	mtp_angle_l	lumbar_extension	lumbar_bending	lumbar_rotation	arm_flex_r	arm_add_r	arm_rot_r	elbow_flex_r	pro_sup_r	arm_flex_l	arm_add_l	arm_rot_l	elbow_flex_l	pro_sup_l
6.4	-0.75369	0.0417961	0.167648	-0.323458	0.652821	-0.472221	1.78026	-0.234855	-0.0729769	1.61598	0.68298	-0.268974	-0.100013	1.70351	-0.342878	-0.0873525	1.36957	0.523288	0.299811	-0.100028	-0.142418	0.00816756	-0.196407	0.839482	-0.3709	0.547636	2.34917	1.72356	1.06751	-0.40573	0.894108	2.21512	2.06309
6.41	-0.7594	0.042038	0.169475	-0.32545	0.646783	-0.472434	1.80084	-0.236947	-0.0685519	1.634	0.687523	-0.267457	-0.100013	1.72372	-0.343925	-0.0840711	1.38777	0.527176	0.301873	-0.100028	-0.148626	0.010203	-0.19968	0.866352	-0.372664	0.566214	2.35511	1.72876	1.08824	-0.409725	0.904277	2.22387	2.06298
6.42	-0.765397	0.0426609	0.171214	-0.327443	0.640822	-0.47268	1.82167	-0.238677	-0.0635758	1.65148	0.691485	-0.266182	-0.100013	1.74374	-0.344704	-0.080787	1.40542	0.530729	0.303796	-0.100028	-0.154549	0.01189	-0.202851	0.893517	-0.374005	0.585508	2.36037	1.73407	1.10919	-0.413148	0.913878	2.23228	2.06376
6.43	-0.771757	0.0437489	0.172594	-0.329437	0.634939	-0.472924	1.84281	-0.239709	-0.0580747	1.66833	0.694772	-0.265197	-0.100013	1.76357	-0.345592	-0.0776514	1.42251	0.534016	0.305549	-0.100028	-0.160113	0.0130069	-0.205648	0.920809	-0.374853	0.605206	2.36486	1.73959	1.13051	-0.415986	0.923025	2.24017	2.06573
6.44	-0.778512	0.0453703	0.17342	-0.331431	0.629137	-0.473142	1.8643	-0.23983	-0.0521065	1.68448	0.697348	-0.264482	-0.100013	1.78321	-0.346877	-0.0748134	1.43903	0.537122	0.307051	-0.100028	-0.165281	0.0133789	-0.207902	0.94809	-0.375128	0.625002	2.36847	1.74552	1.15228	-0.418277	0.931858	2.2474	2.06912
6.45	-0.785652	0.0475587	0.173592	-0.333422	0.623424	-0.473321	1.88609	-0.238971	-0.0457649	1.69991	0.699233	-0.263959	-0.100013	1.80262	-0.348731	-0.0723823	1.45499	0.540118	0.308221	-0.100028	-0.170052	0.0129099	-0.20958	0.975259	-0.374732	0.644605	2.37112	1.75209	1.17454	-0.420098	0.94051	2.25389	2.07393
6.46	-0.793133	0.0503051	0.173113	-0.335404	0.617808	-0.473461	1.9081	-0.237197	-0.0391666	1.71464	0.700498	-0.263517	-0.100013	1.82174	-0.351203	-0.0704111	1.47039	0.54304	0.309011	-0.100028	-0.174436	0.0115918	-0.210772	1.00224	-0.373535	0.663751	2.37276	1.75935	1.19729	-0.421562	0.9491	2.25961	2.0798
6.47	-0.800891	0.0535583	0.172072	-0.337369	0.612298	-0.473571	1.93022	-0.234672	-0.0324304	1.7287	0.701247	-0.263036	-0.100013	1.84054	-0.354231	-0.0688972	1.48523	0.54589	0.309405	-0.100028	-0.17845	0.00950092	-0.211671	1.02897	-0.371382	0.682204	2.37339	1.76704	1.22039	-0.422811	0.957734	2.26465	2.08585
6.48	-0.808834	0.0572303	0.170627	-0.339308	0.606908	-0.473665	1.95225	-0.23163	-0.0256611	1.74214	0.701604	-0.262415	-0.100013	1.85897	-0.357661	-0.0677916	1.49952	0.54864	0.309396	-0.100028	-0.182125	0.00679063	-0.212538	1.05537	-0.368117	0.699759	2.37315	1.77432	1.24369	-0.424002	0.966514	2.26921	2.09055
6.49	-0.816819	0.0612075	0.168972	-0.341206	0.601653	-0.473762	1.97392	-0.228325	-0.0189364	1.75502	0.701699	-0.26158	-0.100013	1.87694	-0.36128	-0.0670142	1.51329	0.551252	0.308972	-0.100028	-0.18555	0.00367236	-0.213655	1.08139	-0.363602	0.716237	2.37228	1.7798	1.26696	-0.425294	0.975528	2.27362	2.09176
6.5	-0.824636	0.0653729	0.167298	-0.343049	0.596557	-0.473879	1.99489	-0.224987	-0.0122966	1.76735	0.701655	-0.260498	-0.100013	1.89427	-0.364866	-0.0664801	1.52656	0.553689	0.308121	-0.100028	-0.188905	0.000381953	-0.215269	1.10696	-0.357748	0.73149	2.3711	1.78172	1.28997	-0.426844	0.98485	2.27828	2.08687
6.51	-0.832005	0.0696286	0.165756	-0.344813	0.59165	-0.474028	2.01467	-0.221775	-0.00573578	1.77914	0.701572	-0.259173	-0.100013	1.91072	-0.368248	-0.0661307	1.53933	0.555928	0.306845	-0.100028	-0.192481	-0.00285911	-0.217555	1.132	-0.350535	0.745407	2.37	1.77836	1.31253	-0.428801	0.994527	2.28365	2.07322
6.52	-0.838584	0.0739071	0.164443	-0.346476	0.586971	-0.474211	2.03274	-0.218766	0.000794753	1.79033	0.701535	-0.257634	-0.100013	1.92594	-0.371329	-0.065953	1.55162	0.557968	0.305167	-0.100028	-0.196671	-0.0058667	-0.220594	1.15643	-0.342027	0.75793	2.36934	1.76849	1.33452	-0.43128	1.00456	2.29015	2.04872
6.53	-0.844	0.0781623	0.163405	-0.348014	0.582559	-0.474426	2.04858	-0.215972	0.00736885	1.80083	0.701629	-0.255914	-0.100013	1.93955	-0.37409	-0.0659779	1.56345	0.559826	0.303141	-0.100028	-0.201913	-0.00849589	-0.224381	1.18016	-0.332382	0.769063	2.36937	1.75186	1.35584	-0.43434	1.01485	2.29804	2.01265
6.54	-0.847903	0.0823511	0.162641	-0.349407	0.578452	-0.474662	2.06175	-0.213358	0.0140521	1.81056	0.701946	-0.254033	-0.100013	1.95119	-0.376585	-0.0662561	1.57487	0.561542	0.300868	-0.100028	-0.208622	-0.010634	-0.228827	1.20307	-0.321838	0.778858	2.37019	1.72962	1.37645	-0.437952	1.02514	2.30732	1.96653
6.55	-0.850033	0.0864135	0.162102	-0.350639	0.574678	-0.474905	2.07195	-0.210861	0.020857	1.81941	0.702591	-0.252002	-0.100013	1.96061	-0.378934	-0.0668178	1.58589	0.563171	0.298517	-0.100028	-0.217083	-0.0121977	-0.233758	1.22499	-0.310701	0.787379	2.37164	1.7046	1.3963	-0.441977	1.03502	2.31762	1.91473
6.56	-0.850295	0.0902581	0.161686	-0.351707	0.571249	-0.475137	2.07919	-0.208393	0.0277015	1.82731	0.703661	-0.249819	-0.100013	1.96778	-0.381313	-0.0676339	1.59656	0.564789	0.296339	-0.100028	-0.227356	-0.0131351	-0.238919	1.24574	-0.299325	0.794672	2.37337	1.68126	1.41531	-0.44618	1.04383	2.32815	1.86459
6.57	-0.848817	0.0937573	0.161253	-0.35262	0.568156	-0.475337	2.08373	-0.205873	0.0343881	1.83422	0.70522	-0.247482	-0.100013	1.97292	-0.38392	-0.0685892	1.6069	0.56648	0.294658	-0.100028	-0.239194	-0.013429	-0.244001	1.2651	-0.288085	0.800759	2.37489	1.66508	1.43335	-0.450257	1.05086	2.33785	1.82547
6.58	-0.845971	0.0967532	0.160653	-0.353393	0.565372	-0.475489	2.08606	-0.203249	0.0406127	1.84019	0.70728	-0.245001	-0.100013	1.97652	-0.386928	-0.0694738	1.61687	0.568325	0.293832	-0.100028	-0.252034	-0.0130964	-0.248686	1.28284	-0.277354	0.80567	2.37573	1.66108	1.45027	-0.453894	1.05543	2.3456	1.80628
